<svg xmlns="http://www.w3.org/2000/svg" xmlns:xlink="http://www.w3.org/1999/xlink" width="66.668" height="67.314" viewBox="0 0 66.668 67.314">
  <defs>
    <clipPath id="clip-path">
      <rect id="사각형_159" data-name="사각형 159" width="66.668" height="67.314" fill="none"/>
    </clipPath>
  </defs>
  <g id="그룹_2186" data-name="그룹 2186" clip-path="url(#clip-path)">
    <path id="패스_5528" data-name="패스 5528" d="M58.322,23.734H43.574V8.336A8.346,8.346,0,0,0,35.238,0H8.336A8.346,8.346,0,0,0,0,8.336V26.27a8.346,8.346,0,0,0,8.336,8.336h.63v5.114a3.844,3.844,0,0,0,3.843,3.859,3.778,3.778,0,0,0,2.715-1.146l7.561-7.52V50a8.35,8.35,0,0,0,8.345,8.335H43.266l7.853,7.811A3.833,3.833,0,0,0,57.7,63.46V58.337h.622A8.349,8.349,0,0,0,66.668,50V32.067A8.35,8.35,0,0,0,58.322,23.734ZM22.728,31.385a1.611,1.611,0,0,0-1.136.469L13.231,40.17a.57.57,0,0,1-.655.142.6.6,0,0,1-.388-.591V33a1.61,1.61,0,0,0-1.611-1.611H8.336A5.12,5.12,0,0,1,3.222,26.27V8.336A5.12,5.12,0,0,1,8.336,3.222h26.9a5.122,5.122,0,0,1,5.114,5.113V26.269a5.121,5.121,0,0,1-5.115,5.114H22.728ZM63.446,50a5.124,5.124,0,0,1-5.124,5.113H56.089a1.612,1.612,0,0,0-1.611,1.611v6.734a.6.6,0,0,1-.386.585.59.59,0,0,1-.681-.159l-8.345-8.3a1.613,1.613,0,0,0-1.136-.469H31.43A5.124,5.124,0,0,1,26.307,50v-15.4h8.929a8.342,8.342,0,0,0,8.3-7.65H58.321a5.123,5.123,0,0,1,5.124,5.112V50Z"/>
    <path id="패스_5529" data-name="패스 5529" d="M244.665,288.048a2.377,2.377,0,1,0,2.379,2.377,2.38,2.38,0,0,0-2.379-2.377" transform="translate(-209.762 -249.379)" fill="#8daf1b"/>
    <path id="패스_5530" data-name="패스 5530" d="M318.953,288.048a2.377,2.377,0,1,0,2.379,2.377,2.38,2.38,0,0,0-2.379-2.377" transform="translate(-274.077 -249.379)" fill="#8daf1b"/>
    <path id="패스_5531" data-name="패스 5531" d="M393.241,288.048a2.377,2.377,0,1,0,2.379,2.377,2.38,2.38,0,0,0-2.379-2.377" transform="translate(-338.392 -249.379)" fill="#8daf1b"/>
    <path id="패스_5532" data-name="패스 5532" d="M147.468,169.328a1.707,1.707,0,0,0,0,3.413,1.707,1.707,0,0,0,0-3.413" transform="translate(-126.213 -146.596)" fill="#8daf1b"/>
    <path id="패스_5533" data-name="패스 5533" d="M128.508,63.032c-3.428,0-5,2.032-5,3.4a1.457,1.457,0,0,0,1.524,1.448c1.371,0,.813-1.956,3.4-1.956,1.269,0,2.285.558,2.285,1.727,0,1.371-1.422,2.159-2.26,2.87a4.649,4.649,0,0,0-1.7,3.861c0,1.321.355,1.7,1.4,1.7,1.245,0,1.5-.558,1.5-1.042a3.19,3.19,0,0,1,1.422-3.175c.685-.534,2.844-2.261,2.844-4.648S131.759,63.032,128.508,63.032Z" transform="translate(-106.924 -54.57)" fill="#8daf1b"/>
  </g>
</svg>
