<svg xmlns="http://www.w3.org/2000/svg" xmlns:xlink="http://www.w3.org/1999/xlink" width="56" height="56" viewBox="0 0 56 56">
  <defs>
    <clipPath id="clip-path">
      <rect id="사각형_160" data-name="사각형 160" width="56" height="56" transform="translate(0 -0.437)" fill="#cb414c"/>
    </clipPath>
  </defs>
  <g id="그룹_2189" data-name="그룹 2189" transform="translate(0 0.698)">
    <g id="그룹_2188" data-name="그룹 2188" transform="translate(0 -0.261)" clip-path="url(#clip-path)">
      <path id="패스_5534" data-name="패스 5534" d="M49.379,3.473H44.922V1.621a1.621,1.621,0,1,0-3.243,0V3.473H34.5V1.621a1.621,1.621,0,1,0-3.243,0V3.473H24.083V1.621a1.621,1.621,0,1,0-3.243,0V3.473H13.663V1.621a1.621,1.621,0,1,0-3.243,0V3.473H5.963A5.97,5.97,0,0,0,0,9.436V49.379a5.97,5.97,0,0,0,5.963,5.963H49.379a5.97,5.97,0,0,0,5.963-5.963V9.436A5.97,5.97,0,0,0,49.379,3.473ZM5.963,6.716H10.42V8.568a1.621,1.621,0,0,0,3.243,0V6.716H20.84V8.568a1.621,1.621,0,0,0,3.243,0V6.716H31.26V8.568a1.621,1.621,0,1,0,3.243,0V6.716h7.177V8.568a1.621,1.621,0,1,0,3.243,0V6.716h4.457A2.724,2.724,0,0,1,52.1,9.436v4.457H3.243V9.436A2.723,2.723,0,0,1,5.963,6.716ZM49.379,52.1H5.963a2.723,2.723,0,0,1-2.72-2.72V17.136H52.1V49.379a2.724,2.724,0,0,1-2.72,2.72" transform="translate(0 0.317)"/>
      <path id="패스_5535" data-name="패스 5535" d="M80.867,208.867H73.92a1.621,1.621,0,0,0-1.621,1.621v6.947a1.621,1.621,0,0,0,1.621,1.621h6.947a1.621,1.621,0,0,0,1.621-1.621v-6.947A1.621,1.621,0,0,0,80.867,208.867Zm-1.621,6.947h-3.7v-3.7h3.7Z" transform="translate(-64.484 -185.974)" fill="#8daf1b"/>
      <path id="패스_5536" data-name="패스 5536" d="M354,208.867h-6.947a1.621,1.621,0,0,0-1.621,1.621v6.947a1.621,1.621,0,0,0,1.621,1.621H354a1.621,1.621,0,0,0,1.621-1.621v-6.947A1.621,1.621,0,0,0,354,208.867m-1.621,6.947h-3.7v-3.7h3.7Z" transform="translate(-308.095 -185.974)" fill="#8daf1b"/>
      <path id="패스_5537" data-name="패스 5537" d="M80.867,337.4H73.92a1.621,1.621,0,0,0-1.621,1.621v6.947a1.621,1.621,0,0,0,1.621,1.621h6.947a1.621,1.621,0,0,0,1.621-1.621v-6.947A1.621,1.621,0,0,0,80.867,337.4Zm-1.621,6.947h-3.7v-3.7h3.7Z" transform="translate(-64.484 -300.613)" fill="#8daf1b"/>
      <path id="패스_5538" data-name="패스 5538" d="M354,337.4h-6.947a1.621,1.621,0,0,0-1.621,1.621v6.947a1.621,1.621,0,0,0,1.621,1.621H354a1.621,1.621,0,0,0,1.621-1.621v-6.947A1.621,1.621,0,0,0,354,337.4m-1.621,6.947h-3.7v-3.7h3.7Z" transform="translate(-308.095 -300.613)" fill="#8daf1b"/>
      <path id="패스_5539" data-name="패스 5539" d="M217.433,337.4h-6.947a1.621,1.621,0,0,0-1.621,1.621v6.947a1.621,1.621,0,0,0,1.621,1.621h6.947a1.621,1.621,0,0,0,1.621-1.621v-6.947a1.621,1.621,0,0,0-1.621-1.621m-1.621,6.947h-3.7v-3.7h3.7Z" transform="translate(-186.288 -300.613)" fill="#8daf1b"/>
      <path id="패스_5540" data-name="패스 5540" d="M214.761,218.754,211,222.52l-1.31-1.31a1.621,1.621,0,0,0-2.293,2.293l2.456,2.456a1.621,1.621,0,0,0,2.293,0l4.912-4.912a1.621,1.621,0,0,0-2.293-2.293Z" transform="translate(-184.552 -194.369)" fill="#8daf1b"/>
    </g>
  </g>
</svg>
