<svg xmlns="http://www.w3.org/2000/svg" width="117.237" height="41.91" viewBox="0 0 117.237 41.91">
  <g id="그룹_2410" data-name="그룹 2410" transform="translate(-731.075 -366.671)">
    <path id="패스_5487" data-name="패스 5487" d="M795.729,366.7h5.416l5.215,9.849h.224L811.8,366.7h5.416l-8.339,14.784v12.652h-4.8V381.486Z" fill="#fff"/>
    <path id="패스_5488" data-name="패스 5488" d="M821.767,394.436a8.728,8.728,0,0,1-4.5-1.111,7.515,7.515,0,0,1-2.92-3.1,10.988,10.988,0,0,1,0-9.279,7.49,7.49,0,0,1,2.92-3.1,9.645,9.645,0,0,1,8.99,0,7.5,7.5,0,0,1,2.92,3.1,11,11,0,0,1,0,9.279,7.515,7.515,0,0,1-2.92,3.1A8.736,8.736,0,0,1,821.767,394.436Zm.022-3.685a2.944,2.944,0,0,0,1.976-.676,4.167,4.167,0,0,0,1.2-1.848,8.95,8.95,0,0,0,0-5.338,4.2,4.2,0,0,0-1.2-1.854,2.918,2.918,0,0,0-1.976-.681,3,3,0,0,0-2,.681,4.124,4.124,0,0,0-1.217,1.854,8.934,8.934,0,0,0,0,5.338,4.09,4.09,0,0,0,1.217,1.848,3.023,3.023,0,0,0,2,.676Z" fill="#fff"/>
    <path id="패스_5489" data-name="패스 5489" d="M843.555,386.935V376.9h4.757v17.236h-4.567v-3.014h-.179a5.069,5.069,0,0,1-1.926,2.423,5.686,5.686,0,0,1-3.277.916,5.788,5.788,0,0,1-3.026-.781,5.348,5.348,0,0,1-2.039-2.223,7.645,7.645,0,0,1-.742-3.45V376.9h4.757v10.254a3.477,3.477,0,0,0,.815,2.4,2.775,2.775,0,0,0,2.155.883,3.376,3.376,0,0,0,1.608-.4,3.072,3.072,0,0,0,1.212-1.178A3.659,3.659,0,0,0,843.555,386.935Z" fill="#fff"/>
    <g id="_치료교육연구소" data-name=" 치료교육연구소" style="isolation: isolate">
      <g id="그룹_2407" data-name="그룹 2407" style="isolation: isolate">
        <path id="패스_5680" data-name="패스 5680" d="M788.57,402.566v-.589h-1.978v-.719h1.978v-1.35h.92v1.35h1.949v.719H789.48v.589a3.888,3.888,0,0,0,2.279,3.449l-.51.71a4.294,4.294,0,0,1-2.2-2.509,4.418,4.418,0,0,1-2.209,2.658l-.51-.7A4.051,4.051,0,0,0,788.57,402.566Zm4.868-2.828v8.816h-.92v-8.816Z" fill="#fff"/>
        <path id="패스_5681" data-name="패스 5681" d="M797.33,406.744v-1.6h-1.209v-2.778h5.137v-1.26H796.1v-.739h6.067v2.719H797.02v1.319h5.348v.739h-1.34v1.6h2.1v.75h-7.986v-.75Zm2.809,0v-1.6H798.23v1.6Z" fill="#fff"/>
        <path id="패스_5682" data-name="패스 5682" d="M804.081,406.6h1.89v-2.878h.9V406.6h1.29v-2.878h.9V406.6h3v.76h-7.976Zm7.087-6.016v.949a19.464,19.464,0,0,1-.31,3.948l-.9-.1a18.9,18.9,0,0,0,.3-3.849v-.2h-5.367v-.75Z" fill="#fff"/>
        <path id="패스_5683" data-name="패스 5683" d="M820.987,403.956v.739h-2.059v1.04h1.08v2.828h-.91v-2.1h-5.187v-.73h1.159V404.7h-2.049v-.739ZM817,399.948c1.909,0,3.129.63,3.129,1.69s-1.22,1.709-3.129,1.709-3.118-.64-3.118-1.709S815.1,399.948,817,399.948Zm0,2.669c1.36,0,2.189-.35,2.189-.979s-.829-.98-2.189-.98-2.178.359-2.178.98S815.65,402.617,817,402.617Zm1.04,3.118V404.7H815.98v1.04Z" fill="#fff"/>
        <path id="패스_5684" data-name="패스 5684" d="M829.238,399.748v6.486h-.91v-2.288h-2.169a2.316,2.316,0,0,1-1.789.789,2.219,2.219,0,1,1,0-4.437,2.3,2.3,0,0,1,1.779.779h2.179v-1.329Zm-4.868,4.2a1.42,1.42,0,1,0-1.419-1.42A1.362,1.362,0,0,0,824.37,403.946Zm-.81,1.629h.92v2.049h5v.75H823.56Zm3.1-3.049a2.085,2.085,0,0,1-.1.67h1.769v-1.369h-1.769A2.628,2.628,0,0,1,826.659,402.526Z" fill="#fff"/>
        <path id="패스_5685" data-name="패스 5685" d="M837.858,400.308v.769a14.717,14.717,0,0,1-.24,3.009h1.259v.75h-3.548v3.737h-.93v-3.737h-3.5v-.75h5.787a13.029,13.029,0,0,0,.27-3.009v-.039h-5.067v-.73Z" fill="#fff"/>
        <path id="패스_5686" data-name="패스 5686" d="M843.349,406.684v-2.1h.9v2.1h3.578v.75h-7.986v-.75Zm-.03-5.707V400.3h.96v.679c0,1.4,1.549,2.709,3.2,2.989l-.39.769a3.453,3.453,0,0,0-6.576,0l-.38-.769C841.79,403.686,843.319,402.377,843.319,400.977Z" fill="#fff"/>
      </g>
    </g>
    <path id="패스_5490" data-name="패스 5490" d="M769.048,372.444" fill="#fff"/>
    <path id="패스_5491" data-name="패스 5491" d="M798.074,379.767A5.3,5.3,0,0,0,796,377.543a6.083,6.083,0,0,0-3.116-.776,5.734,5.734,0,0,0-3.25.866,4.885,4.885,0,0,0-1.878,2.384h-.2V366.671h-4.622v27.472h4.755v-9.915h0a4.078,4.078,0,0,1,.431-1.9,2.907,2.907,0,0,1,1.159-1.2,3.466,3.466,0,0,1,1.715-.414,2.92,2.92,0,0,1,2.261.882,3.475,3.475,0,0,1,.8,2.469v10.078h4.756v-10.92A7.378,7.378,0,0,0,798.074,379.767Z" fill="#fff"/>
    <g id="그룹_2409" data-name="그룹 2409">
      <g id="그룹_2408" data-name="그룹 2408">
        <path id="패스_5492" data-name="패스 5492" d="M764.924,369.425a2.482,2.482,0,0,0-1.815.75,2.518,2.518,0,0,0-.168,3.417,2.363,2.363,0,0,0,.168.178,2.568,2.568,0,0,0,3.629,0,2.516,2.516,0,0,0,.17-3.415,2.227,2.227,0,0,0-.17-.18A2.478,2.478,0,0,0,764.924,369.425Z" fill="#fff"/>
      </g>
      <rect id="사각형_25" data-name="사각형 25" width="4.755" height="15.094" transform="translate(762.547 376.886)" fill="#fff"/>
    </g>
    <path id="패스_5493" data-name="패스 5493" d="M751.786,391.678H751.6L747.738,376.9h-4.2l-3.875,14.744h-.176L735.975,376.9h-4.9l6.069,21.22h4.371l4.03-13.877h.17l4.041,13.877h4.372L760.2,376.9h-4.9Z" fill="#fff"/>
    <path id="패스_5494" data-name="패스 5494" d="M777.33,376.892v-4.547h-4.755v4.549h-2.713v3.868h2.712v27.819h4.756V380.763h2.806v-3.871Z" fill="#fff"/>
  </g>
</svg>
